<svg width="15" height="16" viewBox="0 0 15 16" fill="none" xmlns="http://www.w3.org/2000/svg">
<path d="M12.5 4.87512H2.5C1.80964 4.87512 1.25 5.43477 1.25 6.12512V12.3751C1.25 13.0655 1.80964 13.6251 2.5 13.6251H12.5C13.1904 13.6251 13.75 13.0655 13.75 12.3751V6.12512C13.75 5.43477 13.1904 4.87512 12.5 4.87512Z" stroke="#242323" stroke-width="1.5" stroke-linecap="round" stroke-linejoin="round"/>
<path d="M10 13.6251V3.62512C10 3.2936 9.8683 2.97566 9.63388 2.74124C9.39946 2.50682 9.08152 2.37512 8.75 2.37512H6.25C5.91848 2.37512 5.60054 2.50682 5.36612 2.74124C5.1317 2.97566 5 3.2936 5 3.62512V13.6251" stroke="#242323" stroke-width="1.5" stroke-linecap="round" stroke-linejoin="round"/>
</svg>
