<svg width="15" height="16" viewBox="0 0 15 16" fill="none" xmlns="http://www.w3.org/2000/svg">
<g clip-path="url(#clip0_551_2884)">
<path d="M7.5 11.1251C9.22589 11.1251 10.625 9.72601 10.625 8.00012C10.625 6.27423 9.22589 4.87512 7.5 4.87512C5.77411 4.87512 4.375 6.27423 4.375 8.00012C4.375 9.72601 5.77411 11.1251 7.5 11.1251Z" stroke="#242323" stroke-width="2" stroke-linecap="round" stroke-linejoin="round"/>
<path d="M7.5 1.12512V2.37512" stroke="#242323" stroke-width="2" stroke-linecap="round" stroke-linejoin="round"/>
<path d="M7.5 13.6251V14.8751" stroke="#242323" stroke-width="2" stroke-linecap="round" stroke-linejoin="round"/>
<path d="M2.6375 3.13763L3.525 4.02513" stroke="#242323" stroke-width="2" stroke-linecap="round" stroke-linejoin="round"/>
<path d="M11.475 11.9751L12.3625 12.8626" stroke="#242323" stroke-width="2" stroke-linecap="round" stroke-linejoin="round"/>
<path d="M0.625 8.00012H1.875" stroke="#242323" stroke-width="2" stroke-linecap="round" stroke-linejoin="round"/>
<path d="M13.125 8.00012H14.375" stroke="#242323" stroke-width="2" stroke-linecap="round" stroke-linejoin="round"/>
<path d="M2.6375 12.8626L3.525 11.9751" stroke="#242323" stroke-width="2" stroke-linecap="round" stroke-linejoin="round"/>
<path d="M11.475 4.02513L12.3625 3.13763" stroke="#242323" stroke-width="2" stroke-linecap="round" stroke-linejoin="round"/>
</g>
<defs>
<clipPath id="clip0_551_2884">
<rect width="15" height="15" fill="white" transform="translate(0 0.500122)"/>
</clipPath>
</defs>
</svg>
